<svg width="24" height="24" viewBox="0 0 24 24" fill="none" xmlns="http://www.w3.org/2000/svg">
<rect width="24" height="24" rx="5" fill="#EED25C"/>
<g clip-path="url(#clip0_19978_18671)">
<path d="M8.22121 14.746C8.21289 14.8248 8.20456 14.836 8.1937 14.8947C8.11479 15.3161 8.17524 15.897 7.86935 16.1614C7.52328 16.4034 7.03893 16.3105 6.63602 16.3602C5.93157 16.3948 5.2264 16.3865 4.51869 16.4211C3.71614 16.4772 3.09242 16.4736 3.13839 15.476C3.125 13.0431 2.95378 10.598 3.01206 8.16731C3.13333 7.75673 3.65135 7.74736 4.00791 7.69874C4.5882 7.66309 5.1826 7.59502 5.76035 7.67857C6.37068 7.87594 6.09013 8.74356 6.14515 9.22834C6.14696 10.3996 6.13683 11.5722 6.14298 12.7442C6.05212 13.677 6.98752 13.3514 7.57432 13.3594C7.6279 13.3579 7.67713 13.3619 7.72346 13.3669C7.78319 13.3738 7.83749 13.3831 7.8889 13.3867H7.88926C8.36167 13.4353 8.27262 14.4193 8.22121 14.746Z" fill="#0A0A0B"/>
<path d="M20.9974 12.4485C20.9876 14.0156 20.6998 15.5862 19.0929 16.2403C17.7637 16.7665 16.1137 16.3051 15.2387 15.1767C13.5171 12.7932 14.1897 8.11332 17.4024 7.55183C18.9706 7.26694 20.7447 8.17346 20.921 9.85288C20.946 10.0693 20.942 10.3128 20.7809 10.4727C20.5395 10.7011 20.205 10.8631 19.9125 11.0364C19.6247 11.1786 19.1527 11.5118 18.8678 11.2777C18.7117 11.1422 18.6488 10.9283 18.5452 10.7547C18.4355 10.5426 18.2115 10.3672 17.9762 10.4507C17.8469 10.4932 17.7427 10.5937 17.663 10.7039C17.1602 11.416 17.0614 13.22 17.7829 13.8161C17.9226 13.9216 18.1807 13.9515 18.2886 13.806L18.2907 13.8027H18.2911C18.3754 13.65 18.1369 13.5971 18.0287 13.5521C17.9392 13.5186 17.852 13.4714 17.7995 13.3896C17.6866 13.22 17.7318 12.9207 17.7311 12.6949C17.7427 12.4284 17.7318 12.1006 17.9537 11.9141C18.1644 11.7462 18.4681 11.7841 18.7241 11.7815C19.2515 11.7905 19.7659 11.7491 20.2904 11.725C20.3947 11.721 20.5036 11.7189 20.6046 11.7362C20.9641 11.783 21.0122 12.1485 20.9974 12.4485Z" fill="#0A0A0B"/>
<path d="M14.5074 8.71913C14.4509 9.3386 14.5813 9.99805 14.3807 10.5966C14.2146 10.991 13.7255 10.892 13.3776 10.91C12.8817 10.924 12.3767 10.8833 11.8862 10.9539C11.5796 10.9834 11.4409 11.4088 11.766 11.5298C11.9807 11.6004 12.2156 11.5619 12.4429 11.5561C13.9572 11.3036 13.6593 12.1547 13.6755 13.2629C13.7936 14.2944 12.8223 14.1518 12.1041 14.177C11.3924 14.1132 11.6255 14.7309 11.6024 15.2074C11.6762 16.0674 11.547 16.4629 10.5801 16.4229C9.9799 16.4049 9.36342 16.5796 8.76576 16.455C8.25172 16.2536 8.43706 15.4804 8.40231 14.956C8.40231 14.9546 8.40195 14.9531 8.40195 14.9517C8.4005 14.9315 8.39905 14.9128 8.39688 14.8937C8.38856 14.7964 8.38095 14.6981 8.37371 14.6005C8.35417 14.3275 8.34005 14.0578 8.32955 13.8132V13.8125C8.3158 13.4898 8.30892 13.211 8.30566 13.0263C8.30964 12.9499 8.30675 12.8703 8.30204 12.7904C8.29408 12.6441 8.28032 12.4983 8.29335 12.3722C8.26946 11.2892 8.27127 10.2041 8.21226 9.12179C8.07832 8.15872 8.71436 8.16665 9.47057 8.10938C10.6952 7.99233 11.9376 7.97684 13.1702 7.95631C13.7765 7.95631 14.6432 7.84682 14.5074 8.71913Z" fill="#0A0A0B"/>
</g>
<defs>
<clipPath id="clip0_19978_18671">
<rect width="18" height="9" fill="white" transform="translate(3 7.5)"/>
</clipPath>
</defs>
</svg>