<svg xmlns="http://www.w3.org/2000/svg" width="24" height="24" viewBox="0 0 24 24" fill="none">
  <g clip-path="url(#clip0_20052_26194)">
    <path d="M20.9481 0H3.05191C1.36638 0 0 1.36638 0 3.05191V20.9481C0 22.6336 1.36638 24 3.05191 24H20.9481C22.6336 24 24 22.6336 24 20.9481V3.05191C24 1.36638 22.6336 0 20.9481 0Z" fill="#EED25C"/>
    <path d="M21.7585 10.9553C21.6677 10.7269 21.4799 10.5465 21.2418 10.4622C21.1201 10.4184 21.0081 10.3554 20.9088 10.2743C20.8159 10.1985 20.8116 10.1643 20.7049 10.0544C20.5202 9.86437 20.4444 9.86864 20.359 9.76402C20.2309 9.60604 20.3249 9.49929 20.264 9.20467C20.1413 8.61863 19.6139 8.30479 19.4976 8.25355C19.4784 8.24501 19.4581 8.23647 19.4367 8.229C19.3759 8.20765 19.2638 8.16708 19.1218 8.15321C19.0247 8.1436 18.8881 8.10517 18.7439 8.06461C18.5251 8.00269 18.2785 7.93331 17.9903 7.90449C17.8772 7.89381 17.7619 7.88741 17.6487 7.88741C16.9655 7.88741 16.2994 8.09236 15.6974 8.47879C15.6333 8.51935 15.5479 8.49587 15.517 8.42541C15.3526 8.04753 15.0964 7.68779 14.7815 7.39744C14.3641 7.01101 13.8965 6.79858 13.4653 6.79858C13.3169 6.79858 13.1728 6.82314 13.0372 6.87117L9.71098 8.05714C9.20287 8.23861 8.81644 8.41901 8.53356 8.60902C8.51541 8.62076 8.49727 8.63357 8.48019 8.64531C8.43108 8.68054 8.3649 8.67413 8.32113 8.6325C8.21438 8.52789 8.07988 8.42541 7.91229 8.32934C7.58991 8.14467 7.15332 7.99309 6.68363 7.90235C6.3826 7.84471 6.07944 7.81375 5.80723 7.81375C4.47716 7.81375 4.19428 8.5439 4.1345 8.85881C4.06405 9.22815 4.18361 9.54733 4.28075 9.80459C4.30637 9.87291 4.32878 9.94229 4.3544 10.0106C4.39603 10.1248 4.41845 10.1793 4.39817 10.1953C4.37789 10.2113 4.33732 10.1707 4.23911 10.1494C4.18788 10.1376 4.14838 10.1376 4.10675 10.1376C3.85269 10.1376 3.61785 10.2604 3.47907 10.4675C3.39047 10.5988 3.28373 10.7162 3.16203 10.8166C3.01579 10.9361 2.85033 11.03 2.66993 11.0952C2.44362 11.1774 2.27176 11.361 2.20878 11.5862C2.1458 11.8125 2.20024 12.0559 2.35502 12.2363C2.39879 12.2886 2.43508 12.3452 2.46177 12.405C2.50234 12.4989 2.52262 12.6003 2.51835 12.7092C2.51621 12.7658 2.54824 13.0732 2.72864 13.2376C2.91225 13.4052 3.17484 13.3497 3.19299 13.4553C3.20046 13.4959 3.1631 13.5141 3.09051 13.6037C2.94854 13.7809 2.8909 13.9635 2.83432 14.1407C2.81084 14.2154 2.79055 14.2922 2.77561 14.3744C2.66673 14.9434 2.84393 15.475 3.27412 15.87C3.64133 16.2073 4.19428 16.4443 4.96393 16.5927L7.98168 17.1766C8.07134 17.1936 8.16421 17.2032 8.25708 17.2032C8.75346 17.2032 9.25837 16.9492 9.70458 16.4816C9.75795 16.4261 9.84975 16.4315 9.89352 16.4944C10.2106 16.9406 10.7261 17.1883 11.3677 17.1883C11.7808 17.1883 12.2548 17.0912 12.8152 16.8915C13.4439 16.6674 13.9179 16.3546 14.2264 15.9596C14.2296 15.9554 14.2328 15.9511 14.236 15.9468C14.2819 15.8881 14.3684 15.8806 14.4207 15.933C14.9331 16.4432 15.6024 16.756 16.3677 16.8318C16.3912 16.8339 16.4339 16.8382 16.6026 16.8382C16.7947 16.8382 17.1075 16.8318 17.4 16.7997C17.4192 16.7976 17.4395 16.7997 17.4576 16.8072C17.7832 16.9332 18.1515 17.0175 18.5401 17.0559C18.6852 17.0698 18.8315 17.0773 18.9745 17.0773C19.235 17.0773 19.4858 17.0538 19.7185 17.0079C19.9513 16.962 20.169 16.8947 20.3612 16.8051C20.5971 16.6962 20.7946 16.5574 20.9472 16.393C21.1543 16.1699 21.2792 15.902 21.3069 15.6159C21.3849 14.8217 20.8864 14.4182 20.6472 14.2239C20.644 14.2207 20.6398 14.2175 20.6366 14.2154C20.5875 14.1759 20.5736 14.1044 20.6088 14.051C20.6408 14.003 20.6931 13.9464 20.7817 13.8589C20.9611 13.6806 21.2322 13.4094 21.2749 12.9761C21.2781 12.9376 21.2803 12.9003 21.2803 12.9003C21.2813 12.8512 21.2792 12.8159 21.2792 12.8085C21.2739 12.6964 21.4927 12.5757 21.5599 12.3623C21.5599 12.3601 21.5824 12.2982 21.5834 12.1733C21.5845 12.057 21.6026 11.9438 21.6379 11.8371C21.6581 11.7741 21.6848 11.7122 21.7169 11.6524C21.8332 11.4357 21.8482 11.1806 21.7574 10.9521L21.7585 10.9553Z" fill="black"/>
    <path d="M9.9202 14.019C9.73019 14.9744 8.85379 16.1156 8.14178 15.9832L5.12404 15.4217C3.83346 15.1815 3.51002 14.73 3.60609 14.2432C3.72672 13.6369 4.29354 13.3615 4.59671 12.7231C4.59671 12.7221 4.59777 12.721 4.59884 12.7199C4.65115 12.7029 4.70345 12.69 4.75683 12.6783C5.02476 12.6207 5.23826 12.4264 5.31405 12.1713C5.38984 11.9161 5.31618 11.6418 5.1219 11.455C5.10482 11.4379 5.08561 11.4187 5.06639 11.3963C5.09949 11.2671 5.12938 11.1369 5.155 11.0088C5.22118 10.6779 5.26174 10.3715 5.24893 10.0929C5.23185 9.58477 4.91481 9.20154 4.96712 8.93574C5.04078 8.56853 5.80615 8.5301 6.5267 8.6646C7.24724 8.79911 7.9443 9.10974 7.87065 9.47695C7.81727 9.74382 7.37641 9.98507 7.15224 10.4676C7.05189 10.6779 6.96863 10.9949 6.88644 11.4091C6.69963 12.3463 6.51602 13.369 7.27606 13.5109C8.34888 13.7105 8.57411 12.6762 9.29466 12.8107C9.89244 12.9217 10.0365 13.4341 9.9202 14.0223V14.019Z" fill="white"/>
    <path d="M14.7954 8.81203C14.536 8.1043 13.761 7.4873 13.3222 7.63781L9.99599 8.77894C9.2541 9.033 8.53462 9.37566 8.67232 9.75354C8.77267 10.0279 9.28078 10.2147 9.58074 10.6748C9.80385 11.0132 9.98425 11.3868 10.1326 11.7924C10.3365 12.3496 10.4699 12.9517 10.5329 13.5153C10.6098 14.2647 10.2404 14.8166 10.4689 15.44C10.6482 15.931 11.1777 16.2064 12.5344 15.741C13.5293 15.3994 13.8891 14.8507 13.7193 14.3885C13.5987 14.0576 13.2689 13.937 12.7106 13.0136C12.5985 12.8289 12.4458 12.5621 12.3594 12.3262C12.259 12.0518 12.258 11.8084 12.5601 11.7049C12.9508 11.5714 13.2859 11.8597 13.492 11.7892C13.7065 11.7156 13.7375 11.2907 13.5752 10.8466C13.413 10.4026 13.1151 10.1015 12.9006 10.1741C12.6956 10.2446 12.6124 10.6769 12.2323 10.8071C11.9196 10.9139 11.7242 10.8007 11.6559 10.6118C11.5246 10.2531 11.816 9.57848 12.4789 9.35111C13.6692 8.94226 13.9798 9.94142 14.6043 9.72686C14.9267 9.61584 14.9405 9.207 14.7964 8.81096L14.7954 8.81203Z" fill="white"/>
    <path d="M19.7258 13.8205C19.7941 13.1501 20.4047 12.974 20.4356 12.6665C20.473 12.294 19.7514 12.0463 19.0202 11.9769C18.2889 11.9076 17.531 12.0132 17.4926 12.3858C17.4787 12.5256 17.784 12.959 17.7595 13.2003C17.7477 13.3123 17.6527 13.3871 17.4222 13.3657C16.7005 13.2974 16.4892 12.6089 16.5628 11.883C16.6536 10.9895 17.1777 10.0427 17.7541 10.0982C18.322 10.1526 18.2281 10.9799 18.6092 11.1475C18.6466 11.1603 18.6935 11.1742 18.7319 11.1774C19.1653 11.218 19.4568 10.5412 19.5091 10.0299C19.5592 9.5367 19.4322 9.0638 19.1536 8.94318C19.1162 8.93037 19.0789 8.91756 19.0404 8.91329C18.685 8.87913 18.322 8.71367 17.9089 8.67418C15.9565 8.48844 14.4087 10.4366 14.2155 12.3356C14.0532 13.9272 14.7407 15.4783 16.4529 15.6405C16.4913 15.6437 17.1798 15.6533 17.5471 15.5754C17.8342 15.7152 18.2121 15.8177 18.6252 15.8561C19.5966 15.949 20.4228 15.6512 20.4687 15.205C20.5381 14.5261 19.6436 14.6285 19.7258 13.8183V13.8205Z" fill="white"/>
    <path d="M9.398 11.7303L9.46418 12.2086C9.47699 12.2993 9.37985 12.3666 9.29446 12.3271L9.0468 12.2096C9.02759 12.2011 9.00837 12.1947 8.98809 12.1926C8.96247 12.1894 8.93792 12.1968 8.91657 12.2096C8.82797 12.263 8.67532 12.3377 8.47143 12.3644C8.26755 12.3911 8.09995 12.3569 7.99961 12.3292C7.97292 12.3217 7.94517 12.3217 7.91955 12.3324C7.91955 12.3324 7.91742 12.3324 7.91742 12.3335C7.9014 12.3409 7.88646 12.3505 7.87258 12.3612L7.66656 12.5373C7.59504 12.5982 7.48295 12.5576 7.47121 12.4669L7.40503 11.9887C7.39862 11.947 7.41784 11.9054 7.45306 11.8809C7.52352 11.8317 7.59077 11.7794 7.65268 11.7271C7.68364 11.7004 7.69965 11.661 7.69325 11.6215C7.61639 11.1368 7.75089 10.7515 8.11597 10.3501C8.15439 10.3074 8.22058 10.2989 8.26968 10.3298C8.73083 10.6244 8.96567 10.9618 9.02225 11.4496C9.02652 11.4891 9.05214 11.5232 9.08843 11.5403C9.16316 11.5756 9.24215 11.6086 9.32328 11.6385C9.36384 11.6535 9.39266 11.6887 9.39907 11.7303H9.398Z" fill="#F4D03F"/>
    <path d="M20.236 10.4271C20.2061 10.3822 20.1357 10.4025 20.1346 10.4548C20.1335 10.5669 20.1154 10.7035 20.0631 10.8498C19.9809 11.0782 19.8485 11.2351 19.7503 11.3301C19.7194 11.36 19.7343 11.4113 19.777 11.4198C19.8411 11.4337 19.9136 11.4529 19.9905 11.4775C20.0727 11.5041 20.2307 11.5629 20.4057 11.6696C20.5968 11.787 20.7399 11.9183 20.8413 12.0315C20.8754 12.0699 20.9395 12.0443 20.9374 11.9941C20.9331 11.8639 20.9491 11.6931 21.0292 11.5127C21.0793 11.3985 21.1423 11.3088 21.2 11.2405C21.2245 11.2117 21.2128 11.169 21.1775 11.1561C21.0249 11.1006 20.8157 11.0035 20.6054 10.8316C20.4399 10.695 20.3204 10.5509 20.236 10.426V10.4271Z" fill="#F4D03F"/>
    <path d="M4.07451 10.7538C4.11294 10.6962 4.20581 10.7218 4.20688 10.7901C4.20901 10.9363 4.23143 11.1146 4.29975 11.3057C4.40649 11.6035 4.58049 11.8095 4.70859 11.9334C4.74915 11.9718 4.72887 12.039 4.67336 12.0508C4.58903 12.0689 4.49509 12.0935 4.39475 12.1266C4.288 12.1618 4.08091 12.2386 3.85247 12.3774C3.60269 12.5301 3.41695 12.7019 3.28351 12.8503C3.23868 12.8994 3.15541 12.8674 3.15755 12.8012C3.16289 12.6315 3.14154 12.4084 3.03799 12.1714C2.97288 12.022 2.88961 11.9045 2.81489 11.8159C2.78393 11.7786 2.79781 11.7231 2.84478 11.706C3.0444 11.6334 3.31874 11.5064 3.59201 11.2822C3.80871 11.105 3.96456 10.9161 4.07451 10.7527V10.7538Z" fill="#F4D03F"/>
  </g>
  <defs>
    <clipPath id="clip0_20052_26194">
      <rect width="24" height="24" fill="white"/>
    </clipPath>
  </defs>
</svg>
