<svg xmlns="http://www.w3.org/2000/svg" width="59" height="57" viewBox="0 0 59 57" fill="none">
  <g clip-path="url(#clip0_20001_15396)">
    <path
      d="M50.0464 33.3658C50.3213 32.8668 49.5324 32.6885 49.1858 32.5341C48.8869 32.4271 48.6001 32.2727 48.4327 31.9994C48.0622 31.4409 48.2056 30.4546 48.2056 29.7061C48.2415 28.8268 48.2056 27.7455 48.9348 27.1276C49.628 26.5691 50.6321 26.6998 51.4807 26.6879C53.2259 26.7117 54.9232 26.581 56.6564 26.4978C57.003 26.4859 57.3616 26.474 57.6963 26.5334C58.8797 26.6879 59.047 27.888 58.9992 28.8862C58.9633 34.055 58.019 39.2358 52.7119 41.3984C48.3252 43.1332 42.8746 41.6122 39.982 37.893C34.2923 30.0269 36.5156 14.5916 47.1298 12.7379C52.3055 11.7992 58.1625 14.7936 58.7482 20.3308C58.8318 21.0438 58.8199 21.8518 58.282 22.3746C57.4811 23.1232 56.3815 23.6579 55.4133 24.2283C54.457 24.6917 52.9032 25.7967 51.9589 25.0244C51.4449 24.5728 51.2417 23.8718 50.895 23.3014C50.5365 22.6004 49.7954 22.0181 49.0184 22.3033C48.5881 22.4459 48.2415 22.7786 47.9905 23.1351C46.329 25.4878 46.0063 31.4409 48.3849 33.4015C48.8391 33.7461 49.6878 33.853 50.0464 33.3658ZM48.7555 14.5203C39.0496 14.7342 36.6112 28.2207 40.735 35.5522C41.9781 37.8217 44.2611 39.4496 46.8071 40.0081C49.4487 40.626 52.437 40.0675 54.4092 38.1307C56.2739 36.3246 56.8476 33.6867 57.003 31.1914C57.0269 30.4665 57.1704 29.2426 56.5727 28.7436C56.2978 28.5535 55.9153 28.5772 55.5806 28.5772C54.5527 28.601 52.7239 28.6604 51.6839 28.696C51.1819 28.7198 50.5962 28.7198 50.3572 29.2426C50.142 29.7061 50.142 30.3834 50.5723 30.7398C50.8711 31.0012 51.3493 31.0725 51.7437 31.3102C52.3055 31.6072 52.5326 32.2845 52.4489 32.8905C52.2696 34.3402 51.0385 35.4453 49.628 35.6354C44.5839 36.0869 44.1057 27.0919 45.5521 23.8361C46.1019 22.3984 47.1538 20.9725 48.6479 20.4259C49.8193 19.9981 51.0146 20.4021 51.8513 21.3646C52.3175 21.8637 52.8075 22.8142 53.5008 22.8618C53.9431 22.8974 54.3853 22.6479 54.7798 22.4459C55.3894 22.1132 56.0468 21.7448 56.3934 21.2814C56.8476 20.6992 56.752 19.8912 56.501 19.2258C55.4013 16.1839 51.9589 14.4371 48.7913 14.5322L48.7555 14.5203Z"
      fill="#111" />
    <path
      d="M16.7696 31.8805C17.3434 31.0369 16.937 29.6467 17.0326 28.6366C16.9489 25.06 16.9609 21.4834 16.7696 17.9187C16.3274 14.7461 18.4311 14.7699 20.9293 14.5797C24.9694 14.1995 29.0812 14.1401 33.1452 14.0807C35.1533 14.0807 38.0101 13.7242 37.5559 16.5997C37.3646 18.6435 37.7949 20.818 37.1375 22.7905C36.5877 24.0857 34.974 23.7649 33.8265 23.8243C32.189 23.8718 30.5275 23.7411 28.9019 23.9669C27.8859 24.0619 27.4317 25.464 28.5075 25.868C29.2127 26.1057 29.9896 25.975 30.7427 25.9512C35.739 25.1194 34.7589 27.9237 34.8067 31.5835C35.2011 34.9819 31.9858 34.5184 29.6191 34.6016C27.2643 34.3877 28.0413 36.4315 27.9576 38C28.1967 40.8399 27.7783 42.147 24.5869 42.0163C22.6027 41.9568 20.5707 42.5391 18.5984 42.1232C16.6142 41.3508 17.7856 38 17.2716 36.3959C16.9011 37.6792 17.2597 40.1507 16.0883 41.1607C14.9408 41.9568 13.3511 41.6479 12.0123 41.8143C9.68149 41.9331 7.36261 41.8974 5.01982 42.0163C2.36625 42.2064 0.310336 42.1945 0.465725 38.9031C0.417913 30.8705 -0.143878 22.8143 0.0473704 14.7936C0.441819 13.439 2.16305 13.4034 3.33444 13.2489C5.24692 13.1301 7.21917 12.9043 9.1197 13.1776C11.1398 13.8311 10.2074 16.6948 10.3867 18.2871C10.3987 22.1488 10.3628 26.0225 10.3748 29.8843C10.0759 32.9618 13.1598 31.8924 15.0962 31.9162C15.8014 31.8805 16.2915 32.1301 16.7696 31.8805ZM2.95195 39.7942C3.78866 40.3884 5.1513 40.0438 6.13145 40.0675C8.00807 39.9844 9.84883 39.9962 11.7015 39.9012C15.8612 39.8893 15.0245 39.212 15.4667 35.6592C15.5743 34.4947 15.1918 33.8055 13.9009 33.9006C12.9447 33.9362 12.0362 33.9956 11.08 34.0669C9.38266 34.257 8.49814 33.8293 8.41447 32.0113C8.02002 26.7592 8.77306 21.2695 8.39056 16.0175C8.13955 14.7817 6.7291 15.0313 5.78481 15.0432C2.23477 15.2689 1.68493 14.853 1.88813 18.7505C1.93594 24.965 2.42602 31.2389 2.34235 37.4653C2.3543 38.2258 2.33039 39.2714 2.94 39.7824L2.95195 39.7942ZM35.2609 21.8637C35.3924 21.7211 35.4043 21.4834 35.4282 21.2814C35.5119 20.4734 35.5358 18.7386 35.5836 17.6692C35.6434 16.7661 35.488 16.2195 34.4601 16.1601C31.687 16.1126 28.9019 16.1482 26.1288 16.2076C24.3837 16.2552 22.5429 16.3383 20.8097 16.4928C19.7698 16.5879 18.8016 16.7186 18.7538 17.99C18.7419 24.0144 18.9809 30.0625 19.1961 36.075C19.22 36.8236 19.208 37.6079 19.2439 38.3684C19.2678 39.3665 19.6503 40.1507 20.7261 40.2101C21.9094 40.2933 23.1406 40.1982 24.288 40.127C25.5073 40.0675 26.093 39.5447 26.0332 38.3089C26.0212 36.8355 25.6866 35.3027 25.9615 33.853C26.1288 33.0094 26.9775 32.6529 27.7783 32.6291C28.7346 32.5697 29.7267 32.6173 30.6949 32.5935C32.5954 32.5578 32.9779 32.3677 32.8703 30.5022C32.8105 28.2564 33.1213 27.6979 30.4917 27.8762C29.8342 27.8999 29.2007 27.9237 28.5433 27.9831C27.7305 28.0306 26.8579 28.1019 26.2603 27.8168C25.4834 27.3771 25.6866 26.3433 25.6507 25.571C25.7583 24.4303 25.3638 22.6123 26.595 22.1251C26.9416 21.9944 27.3002 22.0063 27.6588 21.9944C29.1888 21.9944 33.0496 21.9944 34.4959 21.9944C34.7828 21.9825 35.0697 22.03 35.2609 21.8637Z"
      fill="#111" />
  </g>
  <defs>
    <clipPath id="clip0_20001_15396">
      <rect width="59" height="57" fill="#111" />
    </clipPath>
  </defs>
</svg>